<svg xmlns="http://www.w3.org/2000/svg" fill="none" viewBox="11 12 43.55 43.55" style = {{ height: 50}}>
    <path d="M19.71 12C14.8994 12 11 15.8994 11 20.71V46.84C11 51.6506 14.8994 55.55 19.71 55.55H45.84C50.6499 55.55 54.55 51.6506 54.55 46.84V20.71C54.55 15.8994 50.6506 12 45.84 12H19.71ZM19.71 13.34H45.84C49.9103 13.34 53.21 16.6398 53.21 20.71V46.84C53.21 50.9103 49.9103 54.21 45.84 54.21H19.71C15.6398 54.21 12.34 50.9103 12.34 46.84V20.71C12.34 16.6398 15.6391 13.34 19.71 13.34ZM21.6101 15.35C17.6001 15.35 14.35 18.6001 14.35 22.6101V44.9386C14.35 48.9486 17.6001 52.2 21.6101 52.2H43.9386C47.9486 52.2 51.2 48.9492 51.2 44.9386V32.435C51.2 32.2501 51.0499 32.1 50.865 32.1C50.6801 32.1 50.53 32.2501 50.53 32.435V44.9386C50.53 48.5787 47.5787 51.53 43.9386 51.53H21.6114C17.9713 51.53 15.02 48.5787 15.02 44.9386V22.6101C15.02 18.97 17.97 16.02 21.6101 16.02H44.165C44.3499 16.02 44.5 15.8699 44.5 15.685C44.5 15.5001 44.3499 15.35 44.165 15.35H21.6101ZM21.4439 24.0679C20.7645 24.0679 20.1418 24.2966 19.6315 24.6711C19.5599 24.6974 19.4995 24.7472 19.4601 24.8124C18.7946 25.3784 18.3621 26.2107 18.3621 27.1496V41.0861C18.3621 42.0247 18.7938 42.8573 19.4587 43.4233C19.4996 43.4955 19.5658 43.5501 19.6446 43.5764C20.1523 43.9446 20.7708 44.1679 21.4439 44.1679H44.0904C44.9424 44.1679 45.7145 43.8187 46.2731 43.2571C46.3178 43.2361 46.3572 43.2055 46.3887 43.1675C46.4201 43.1295 46.4428 43.085 46.455 43.0372C46.8961 42.5039 47.1721 41.8298 47.1721 41.0861V27.1496C47.1721 26.4053 46.8955 25.7307 46.4537 25.1972C46.4408 25.1548 46.4195 25.1153 46.3912 25.0812C46.3629 25.047 46.3281 25.0189 46.2888 24.9983C45.7289 24.4261 44.9514 24.0679 44.0904 24.0679H21.4439ZM50.865 24.4473C50.6801 24.4473 50.53 24.5974 50.53 24.7823V26.1223C50.53 26.3073 50.6801 26.4573 50.865 26.4573C51.0499 26.4573 51.2 26.3079 51.2 26.1223V24.7823C51.2 24.5974 51.0499 24.4473 50.865 24.4473ZM21.4439 24.7379H44.0904C44.6932 24.7379 45.2362 24.9649 45.6581 25.328L38.0408 33.9831C38.0106 34.0077 37.9849 34.0373 37.9649 34.0707L36.3736 35.8779C34.4749 38.0354 31.1153 37.9963 29.2667 35.7955L27.8272 34.0812C27.808 34.048 27.7832 34.0183 27.7539 33.9935C27.7531 33.9931 27.7522 33.9927 27.7513 33.9922L20.2518 25.0624C20.6042 24.8613 21.0076 24.7379 21.4439 24.7379ZM19.7165 25.468L27.0944 34.2513L19.7244 42.7755C19.2973 42.3408 19.0321 41.7463 19.0321 41.0861V27.1496C19.0321 26.4934 19.2941 25.9021 19.7165 25.468ZM46.1083 25.8292C46.3562 26.2083 46.5021 26.661 46.5021 27.1496V41.0861C46.5021 41.5812 46.3531 42.0401 46.0991 42.4222L38.7029 34.2448L46.1083 25.8292ZM50.865 27.1273C50.6801 27.1273 50.53 27.2774 50.53 27.4623V30.1423C50.53 30.3273 50.6801 30.4773 50.865 30.4773C51.0499 30.4773 51.2 30.3279 51.2 30.1423V27.4623C51.2 27.2774 51.0499 27.1273 50.865 27.1273ZM38.2567 34.7512L45.645 42.9181C45.2248 43.2748 44.6871 43.4979 44.0904 43.4979H21.4439C21.0117 43.4979 20.6123 43.3761 20.2622 43.1786L27.5302 34.7708L28.7537 36.2273C30.8581 38.7326 34.7147 38.7763 36.8761 36.3202L38.2567 34.7512Z" fill="black"/>
</svg>