<svg width="67" height="67" viewBox="0 0 67 67" fill="green" xmlns="http://www.w3.org/2000/svg">
<path d="M33.5 9.38C20.1868 9.38 9.38 20.1868 9.38 33.5C9.38 46.8132 20.1868 57.62 33.5 57.62C46.8132 57.62 57.62 46.8132 57.62 33.5C57.62 20.1868 46.8132 9.38 33.5 9.38ZM33.5 10.72C46.089 10.72 56.28 20.911 56.28 33.5C56.28 44.9503 47.8478 54.4152 36.85 56.034V40.2H42.7387L44.148 33.5H36.8513V28.4279C36.8513 27.5714 37.0392 27.0373 37.4781 26.6783C37.9167 26.3196 38.6853 26.1094 39.9095 26.1091L43.5291 26.1326L43.5513 19.8474L43.3131 19.7742C40.9174 19.0366 38.8418 18.8121 37.079 18.9851C35.3162 19.1581 33.8663 19.7274 32.7227 20.5763C30.4356 22.2742 29.4126 25.049 29.48 27.8325V33.5H23.45V40.2H29.48V55.9201C18.8123 54.0225 10.72 44.7162 10.72 33.5C10.72 20.911 20.911 10.72 33.5 10.72ZM31.2649 12.9067C31.2601 12.907 31.2553 12.9074 31.2505 12.908C31.2427 12.9086 31.2348 12.9094 31.227 12.9106C26.4645 13.4247 21.8578 15.5838 18.3373 19.3541C18.305 19.3858 18.2794 19.4237 18.2622 19.4655C18.2449 19.5073 18.2363 19.5522 18.2368 19.5975C18.2374 19.6427 18.2471 19.6874 18.2654 19.7288C18.2837 19.7702 18.3102 19.8074 18.3433 19.8383C18.3764 19.8692 18.4154 19.893 18.4579 19.9084C18.5005 19.9238 18.5457 19.9304 18.5909 19.9279C18.6361 19.9253 18.6803 19.9136 18.7208 19.8935C18.7613 19.8734 18.7974 19.8452 18.8267 19.8108C22.2354 16.1602 26.6895 14.0743 31.299 13.5767C31.3429 13.5744 31.3861 13.5636 31.4259 13.5447C31.4656 13.5258 31.5013 13.4992 31.5308 13.4665C31.5604 13.4338 31.5832 13.3956 31.5979 13.3541C31.6127 13.3126 31.6192 13.2686 31.6169 13.2247C31.6147 13.1807 31.6038 13.1375 31.5849 13.0977C31.566 13.058 31.5395 13.0223 31.5068 12.9928C31.4741 12.9632 31.4359 12.9404 31.3944 12.9257C31.3529 12.9109 31.3089 12.9044 31.2649 12.9067ZM38.3444 19.6132C39.6754 19.6284 41.1833 19.8612 42.8787 20.3617L42.8617 25.4574L39.9134 25.4391H39.9121C38.6123 25.4391 37.6818 25.6455 37.0541 26.1588C36.4265 26.6721 36.1813 27.4646 36.1813 28.4279V34.17H43.3223L42.1943 39.53H36.18V56.1177C35.3004 56.2207 34.4074 56.28 33.5 56.28C32.3614 56.28 31.2436 56.195 30.15 56.034V39.53H24.12V34.17H30.15V27.8207V27.8168C30.0868 25.2074 31.0386 22.662 33.1218 21.1155C34.3999 20.1667 36.1261 19.5879 38.3444 19.6132ZM15.7659 23.0731C15.7059 23.0729 15.6469 23.0888 15.5951 23.1192C15.5433 23.1496 15.5006 23.1933 15.4715 23.2459C10.8311 31.3995 12.2148 41.9782 19.3881 48.6758C19.4532 48.7363 19.5397 48.7685 19.6285 48.7653C19.7173 48.7621 19.8013 48.7238 19.8618 48.6587C19.9224 48.5937 19.9546 48.5072 19.9514 48.4184C19.9482 48.3295 19.9099 48.2456 19.8448 48.185C12.8972 41.6983 11.5649 31.4644 16.0538 23.5769C16.0835 23.5261 16.0992 23.4684 16.0994 23.4096C16.0997 23.3508 16.0845 23.293 16.0553 23.2419C16.0261 23.1909 15.984 23.1484 15.9332 23.1188C15.8824 23.0891 15.8247 23.0734 15.7659 23.0731ZM52.5374 25.8042C52.4823 25.8036 52.4278 25.8166 52.3789 25.8422C52.3301 25.8677 52.2882 25.9049 52.2571 25.9504C52.2261 25.996 52.2067 26.0485 52.2008 26.1034C52.195 26.1582 52.2027 26.2137 52.2234 26.2648C53.2039 28.7742 53.664 31.4459 53.5974 34.1072C53.5862 34.5415 53.5616 34.9756 53.5228 35.4079C53.5188 35.4518 53.5236 35.4959 53.5367 35.5379C53.5498 35.5799 53.571 35.6189 53.5992 35.6527C53.6274 35.6865 53.662 35.7144 53.701 35.7348C53.74 35.7553 53.7826 35.7678 53.8264 35.7718C53.8702 35.7757 53.9144 35.771 53.9564 35.7579C53.9984 35.7448 54.0374 35.7235 54.0712 35.6953C54.105 35.6671 54.1329 35.6325 54.1533 35.5935C54.1737 35.5546 54.1862 35.512 54.1902 35.4681C54.2304 35.0205 54.2558 34.5725 54.2674 34.1242V34.1229C54.3362 31.3733 53.8609 28.6147 52.8476 26.0214C52.8238 25.9581 52.7815 25.9035 52.7261 25.8648C52.6708 25.826 52.605 25.8049 52.5374 25.8042ZM53.2598 37.9754C53.1824 37.9743 53.1069 38 53.0463 38.0482C52.9858 38.0964 52.9437 38.1641 52.9274 38.2397C52.6639 39.3821 52.2972 40.506 51.8269 41.5976C51.707 41.8755 51.5805 42.1511 51.4474 42.4246C51.4281 42.4642 51.4169 42.5072 51.4142 42.5512C51.4116 42.5952 51.4177 42.6392 51.4321 42.6808C51.4465 42.7224 51.4689 42.7608 51.4982 42.7938C51.5274 42.8267 51.5628 42.8536 51.6024 42.8728C51.642 42.8921 51.6851 42.9033 51.729 42.9059C51.773 42.9086 51.817 42.9025 51.8587 42.8881C51.9003 42.8737 51.9386 42.8512 51.9716 42.822C52.0045 42.7928 52.0314 42.7574 52.0506 42.7177C52.1882 42.4352 52.3179 42.1508 52.4419 41.8632C52.9283 40.7344 53.3079 39.5715 53.5804 38.3902C53.5924 38.3413 53.5932 38.2903 53.5828 38.241C53.5723 38.1917 53.5509 38.1454 53.5201 38.1055C53.4893 38.0656 53.4499 38.0332 53.4048 38.0107C53.3597 37.9882 53.3102 37.9761 53.2598 37.9754ZM50.3848 44.7565C50.3303 44.7572 50.2768 44.7711 50.2289 44.7971C50.181 44.8231 50.1402 44.8604 50.11 44.9057C49.5485 45.7236 48.9197 46.5098 48.2217 47.2573C46.4801 49.1227 44.4648 50.5784 42.2964 51.624C42.2567 51.6432 42.2211 51.67 42.1918 51.7029C42.1624 51.7358 42.1399 51.7741 42.1253 51.8157C42.1108 51.8574 42.1046 51.9014 42.1072 51.9454C42.1097 51.9894 42.1208 52.0325 42.14 52.0722C42.1591 52.1119 42.1859 52.1475 42.2188 52.1768C42.2517 52.2061 42.2901 52.2287 42.3317 52.2432C42.3733 52.2578 42.4174 52.2639 42.4614 52.2614C42.5054 52.2589 42.5485 52.2478 42.5882 52.2286C44.8297 51.1477 46.9124 49.6407 48.7111 47.714C49.4321 46.9419 50.082 46.1303 50.6622 45.2852C50.6979 45.2348 50.719 45.1755 50.7231 45.1138C50.7272 45.0522 50.7142 44.9906 50.6855 44.9359C50.6568 44.8811 50.6135 44.8354 50.5604 44.8038C50.5074 44.7721 50.4466 44.7558 50.3848 44.7565Z" fill="black"/>
</svg>
