<svg xmlns="http://www.w3.org/2000/svg" fill="none" viewBox="10.05 10.05 46.9 46.9">
<path d="M33.5 10.05C20.5568 10.05 10.05 20.5568 10.05 33.5C10.05 46.4431 20.5568 56.95 33.5 56.95C46.4431 56.95 56.95 46.4431 56.95 33.5C56.95 20.5568 46.4431 10.05 33.5 10.05ZM33.5 11.39C45.7189 11.39 55.61 21.281 55.61 33.5C55.61 45.7189 45.7189 55.61 33.5 55.61C21.281 55.61 11.39 45.7189 11.39 33.5C11.39 21.281 21.281 11.39 33.5 11.39ZM33.5 14.07C22.7731 14.07 14.07 22.7731 14.07 33.5C14.07 44.2268 22.7731 52.93 33.5 52.93C37.6926 52.93 41.5784 51.6004 44.7539 49.3405C44.7907 49.3154 44.8221 49.2832 44.8462 49.2458C44.8704 49.2083 44.8869 49.1665 44.8947 49.1226C44.9025 49.0788 44.9015 49.0338 44.8917 48.9904C44.8819 48.9469 44.8636 48.9058 44.8378 48.8695C44.8119 48.8333 44.7791 48.8025 44.7412 48.779C44.7034 48.7556 44.6612 48.7399 44.6172 48.733C44.5732 48.726 44.5282 48.7279 44.485 48.7385C44.4417 48.7492 44.401 48.7683 44.3652 48.7948C42.897 49.8398 41.2693 50.6711 39.53 51.2615V45.3284C39.53 43.7929 38.7763 42.4329 37.6522 41.54H38.156C42.9639 41.54 46.8699 37.6655 46.8699 32.8562C46.8699 30.606 45.9849 28.5743 44.5825 27.029C44.8345 25.5065 44.8041 23.4749 44.2017 21.669C44.1794 21.6023 44.1367 21.5443 44.0796 21.5032C44.0226 21.462 43.954 21.44 43.8837 21.44C40.8085 21.44 38.4441 23.6492 37.944 24.12H29.5912C29.1252 23.675 26.8606 21.44 23.785 21.44C23.7147 21.44 23.6461 21.462 23.589 21.5032C23.5319 21.5443 23.4893 21.6023 23.467 21.669C22.9329 23.2718 22.7488 25.1038 22.8873 26.5317C21.2013 28.1186 20.1314 30.3576 20.1314 32.8562C20.1314 37.6655 24.0375 41.5387 28.8453 41.5387H29.5114C28.6015 42.1985 27.8875 43.0768 27.6126 44.1991C26.9921 44.193 26.2932 44.1712 25.6471 44.0041C24.9378 43.8206 24.3237 43.4958 23.942 42.9232C23.1048 41.6673 22.482 41.0115 21.9163 40.6606C21.3507 40.3098 20.8467 40.3008 20.435 40.3008C20.1731 40.3008 19.9318 40.3677 19.748 40.5193C19.5642 40.6708 19.4608 40.9024 19.4483 41.133C19.4233 41.5943 19.6767 42.0667 20.1314 42.5214C20.9555 43.3455 20.892 43.2588 21.7161 44.907C22.4377 46.3513 24.277 47.459 27.47 47.5399V51.2641C20.067 48.7534 14.74 41.754 14.74 33.5C14.74 23.1352 23.1352 14.74 33.5 14.74C43.8647 14.74 52.26 23.1352 52.26 33.5C52.26 35.4333 51.9681 37.2984 51.4251 39.0524C51.4105 39.0948 51.4045 39.1398 51.4076 39.1846C51.4107 39.2294 51.4228 39.2731 51.4431 39.3132C51.4634 39.3532 51.4916 39.3888 51.526 39.4177C51.5603 39.4466 51.6001 39.4684 51.643 39.4816C51.6859 39.4949 51.7311 39.4994 51.7757 39.4948C51.8204 39.4903 51.8637 39.4768 51.9031 39.4552C51.9425 39.4336 51.9771 39.4043 52.0049 39.369C52.0327 39.3338 52.0532 39.2933 52.065 39.25C52.6276 37.4328 52.93 35.5009 52.93 33.5C52.93 22.7731 44.2268 14.07 33.5 14.07ZM24.0441 22.1558C26.7377 22.2898 28.832 24.3108 29.2471 24.6997C29.3092 24.7578 29.391 24.79 29.4761 24.79H38.0539C38.1391 24.7897 38.221 24.7569 38.2829 24.6984C38.6673 24.3369 40.9148 22.2949 43.6167 22.1571C44.1076 23.8133 44.1569 25.7073 43.9151 27.0525C43.9059 27.1041 43.9089 27.1572 43.9239 27.2074C43.9389 27.2577 43.9654 27.3037 44.0015 27.3417C45.3621 28.7828 46.1999 30.7188 46.1999 32.8562C46.1999 37.3035 42.6048 40.87 38.156 40.87H36.515C36.4384 40.8697 36.364 40.8957 36.3043 40.9437C36.2445 40.9916 36.203 41.0586 36.1866 41.1334C36.1702 41.2082 36.18 41.2864 36.2143 41.3549C36.2485 41.4234 36.3053 41.4781 36.375 41.5099C37.8127 42.1689 38.86 43.6454 38.86 45.3284V51.4709C37.1607 51.9771 35.3646 52.26 33.5 52.26C31.6367 52.26 29.8387 51.9854 28.14 51.4801V47.235C28.14 47.1461 28.1047 47.0609 28.0419 46.9981C27.979 46.9353 27.8938 46.9 27.805 46.9C24.5297 46.9 22.9228 45.8239 22.3154 44.6073C21.4913 42.9591 21.4292 42.8718 20.6051 42.0477C20.2357 41.6784 20.1098 41.3264 20.1183 41.1697C20.1225 41.0913 20.1398 41.0649 20.1746 41.0362C20.2094 41.0075 20.2848 40.9708 20.435 40.9708C20.8467 40.9708 21.1322 40.9626 21.563 41.2299C21.9938 41.4971 22.5736 42.0784 23.3846 43.2948C23.8853 44.0461 24.6726 44.4434 25.4783 44.6518C26.2841 44.8603 27.1248 44.8887 27.805 44.8887C27.8844 44.8888 27.9613 44.8607 28.0219 44.8094C28.0826 44.7582 28.123 44.687 28.1361 44.6086C28.3599 43.2327 29.3745 42.0811 30.625 41.5086C30.6947 41.4768 30.7514 41.4221 30.7857 41.3536C30.82 41.2851 30.8297 41.2069 30.8134 41.1321C30.797 41.0573 30.7555 40.9903 30.6957 40.9424C30.636 40.8944 30.5616 40.8684 30.485 40.8687H28.8453C24.3964 40.8687 20.8014 37.3035 20.8014 32.8562C20.8014 30.494 21.8228 28.3825 23.4434 26.9112C23.483 26.8753 23.5134 26.8304 23.532 26.7803C23.5507 26.7302 23.5571 26.6764 23.5507 26.6233C23.4055 25.3808 23.5894 23.656 24.0441 22.1558ZM24.2351 28.123C24.1484 28.1274 24.0667 28.1655 24.0074 28.229C23.4098 28.8492 22.9452 29.5629 22.6295 30.3384C22.6112 30.3794 22.6014 30.4237 22.6006 30.4686C22.5998 30.5135 22.608 30.5581 22.6248 30.5998C22.6415 30.6414 22.6665 30.6793 22.6982 30.7111C22.7299 30.7429 22.7676 30.7681 22.8092 30.785C22.8508 30.8019 22.8954 30.8103 22.9403 30.8097C22.9852 30.8091 23.0295 30.7994 23.0706 30.7813C23.1117 30.7632 23.1487 30.737 23.1795 30.7043C23.2103 30.6716 23.2342 30.6331 23.2498 30.591C23.5331 29.8951 23.9503 29.2539 24.4903 28.6935C24.5379 28.6455 24.5699 28.5842 24.5821 28.5177C24.5942 28.4512 24.5859 28.3825 24.5583 28.3208C24.5307 28.259 24.4851 28.2071 24.4274 28.1718C24.3697 28.1365 24.3027 28.1195 24.2351 28.123ZM22.5353 31.5044C22.4583 31.509 22.3853 31.5401 22.3286 31.5923C22.2718 31.6445 22.2348 31.7147 22.2238 31.791C22.1689 32.1398 22.1414 32.4957 22.1414 32.8562C22.1414 33.2105 22.1689 33.56 22.2225 33.9004C22.2272 33.9457 22.2411 33.9896 22.2632 34.0293C22.2854 34.0691 22.3155 34.1039 22.3516 34.1316C22.3877 34.1594 22.4291 34.1795 22.4732 34.1907C22.5173 34.2019 22.5632 34.2041 22.6082 34.1969C22.6532 34.1898 22.6962 34.1736 22.7347 34.1493C22.7732 34.125 22.8063 34.0931 22.8321 34.0555C22.8578 34.018 22.8757 33.9756 22.8845 33.9309C22.8933 33.8862 22.8929 33.8402 22.8834 33.7957C22.8352 33.4902 22.8114 33.1759 22.8114 32.8562C22.8114 32.5306 22.8364 32.2101 22.886 31.8957C22.8946 31.8458 22.8918 31.7947 22.8778 31.7462C22.8638 31.6976 22.839 31.6528 22.8053 31.6152C22.7716 31.5775 22.7297 31.548 22.683 31.5288C22.6362 31.5096 22.5857 31.5013 22.5353 31.5044ZM22.9108 34.8269C22.8555 34.8262 22.8009 34.8393 22.7519 34.8649C22.7028 34.8905 22.6609 34.9278 22.6298 34.9735C22.5987 35.0193 22.5794 35.072 22.5736 35.127C22.5679 35.1821 22.5758 35.2376 22.5968 35.2888C23.4406 37.4505 25.3743 39.0686 27.7199 39.4672C27.7645 39.4775 27.8106 39.4786 27.8556 39.4704C27.9005 39.4622 27.9433 39.4449 27.9814 39.4195C28.0194 39.3942 28.0518 39.3613 28.0767 39.3229C28.1015 39.2846 28.1183 39.2416 28.1259 39.1965C28.1335 39.1514 28.1318 39.1053 28.1209 39.0609C28.11 39.0165 28.0901 38.9748 28.0625 38.9384C28.0349 38.902 28.0001 38.8716 27.9604 38.8491C27.9206 38.8266 27.8766 38.8125 27.8312 38.8076C25.7212 38.4491 23.9798 36.9895 23.221 35.0454C23.1974 34.9819 23.1552 34.9271 23.0998 34.888C23.0445 34.849 22.9786 34.8277 22.9108 34.8269ZM51.2615 40.1568C51.1959 40.1595 51.1325 40.1814 51.0793 40.2197C51.026 40.2581 50.9852 40.3113 50.9619 40.3727C50.2998 42.0543 49.4009 43.6167 48.3067 45.0208C48.2521 45.091 48.2275 45.1799 48.2384 45.2681C48.2493 45.3563 48.2949 45.4366 48.365 45.4913C48.4351 45.5459 48.524 45.5705 48.6122 45.5596C48.7005 45.5487 48.7807 45.5032 48.8354 45.4331C49.9683 43.979 50.8988 42.3609 51.5848 40.6187C51.6061 40.5668 51.614 40.5104 51.6078 40.4546C51.6016 40.3988 51.5815 40.3455 51.5493 40.2995C51.5171 40.2535 51.4739 40.2164 51.4236 40.1914C51.3733 40.1665 51.3176 40.1546 51.2615 40.1568ZM47.4116 46.2221C47.3248 46.228 47.2436 46.2674 47.1853 46.3321C46.7357 46.8113 46.2606 47.2663 45.7628 47.6969C45.7282 47.7253 45.6995 47.7603 45.6786 47.7999C45.6577 47.8395 45.645 47.8829 45.6412 47.9275C45.6373 47.9721 45.6425 48.0171 45.6563 48.0597C45.6701 48.1023 45.6924 48.1416 45.7217 48.1755C45.751 48.2094 45.7868 48.237 45.8269 48.2568C45.8671 48.2766 45.9108 48.2881 45.9555 48.2907C46.0003 48.2933 46.045 48.2869 46.0872 48.2719C46.1294 48.2569 46.1682 48.2336 46.2012 48.2033C46.7164 47.7576 47.2077 47.2864 47.6734 46.7901C47.7184 46.7436 47.749 46.6851 47.7615 46.6216C47.774 46.5581 47.7678 46.4923 47.7437 46.4322C47.7197 46.3722 47.6787 46.3204 47.6258 46.2831C47.5729 46.2458 47.5103 46.2246 47.4457 46.2221C47.4343 46.2216 47.423 46.2216 47.4116 46.2221Z" fill="black"/>
</svg>