<svg xmlns="http://www.w3.org/2000/svg" fill="none" viewBox="11.6 11.83 43.55 43.55">
<path d="M20.3055 11.8284C15.5029 11.8284 11.5955 15.7358 11.5955 20.5384V46.6684C11.5955 51.4709 15.5029 55.3784 20.3055 55.3784H46.4355C51.238 55.3784 55.1455 51.4709 55.1455 46.6684V20.5384C55.1455 15.7351 51.2387 11.8284 46.4355 11.8284H20.3055ZM20.3055 13.1684H46.4355C50.499 13.1684 53.8055 16.4748 53.8055 20.5384V46.6684C53.8055 50.7319 50.499 54.0384 46.4355 54.0384H20.3055C16.2419 54.0384 12.9355 50.7319 12.9355 46.6684V20.5384C12.9355 16.4748 16.2419 13.1684 20.3055 13.1684ZM22.2068 15.1771C18.2029 15.1771 14.9455 18.4345 14.9455 22.4384V44.767C14.9455 48.7709 18.2029 52.0271 22.2068 52.0271H44.5354C48.5393 52.0271 51.7955 48.7709 51.7955 44.767V32.2634C51.7955 32.0778 51.6454 31.9284 51.4605 31.9284C51.2755 31.9284 51.1255 32.0785 51.1255 32.2634V44.767C51.1255 48.4011 48.1695 51.3584 44.5354 51.3584H22.2068C18.5728 51.3584 15.6155 48.4011 15.6155 44.767V22.4384C15.6155 18.8044 18.5728 15.8471 22.2068 15.8471H44.7605C44.9454 15.8471 45.0955 15.697 45.0955 15.5121C45.0955 15.3271 44.9454 15.1771 44.7605 15.1771H22.2068ZM26.0122 23.9159C24.6139 23.9159 23.5992 24.8957 23.5992 26.2465C23.5992 27.5972 24.5931 28.5771 25.9874 28.5771C27.3857 28.5771 28.4017 27.5974 28.4017 26.2386C28.3682 24.8711 27.3844 23.9159 26.0122 23.9159ZM26.0122 24.5859C27.0313 24.5859 27.7069 25.2421 27.7317 26.2478C27.7324 27.2253 27.0157 27.9084 25.9651 27.9084C24.9675 27.9084 24.2692 27.2253 24.2692 26.2478C24.2692 25.2696 24.9858 24.5859 26.0122 24.5859ZM51.4605 25.2284C51.2755 25.2284 51.1255 25.3778 51.1255 25.5634V26.9034C51.1255 27.0883 51.2755 27.2384 51.4605 27.2384C51.6454 27.2384 51.7955 27.0883 51.7955 26.9034V25.5634C51.7955 25.3785 51.6454 25.2284 51.4605 25.2284ZM51.4605 27.9084C51.2755 27.9084 51.1255 28.0585 51.1255 28.2434V30.9234C51.1255 31.1083 51.2755 31.2584 51.4605 31.2584C51.6454 31.2584 51.7955 31.1083 51.7955 30.9234V28.2434C51.7955 28.0578 51.6454 27.9084 51.4605 27.9084ZM38.576 29.8359C37.102 29.8446 35.9071 30.2847 35.0442 31.21V30.2521C35.0442 30.0671 34.8941 29.9171 34.7092 29.9171H30.6394C30.5476 29.9171 30.4597 29.9541 30.396 30.0204C30.333 30.0868 30.3004 30.1766 30.3044 30.2678C30.3587 31.4396 30.3044 42.8655 30.3044 42.9808C30.3038 43.0705 30.339 43.1559 30.4013 43.2189C30.4642 43.2819 30.5497 43.3171 30.6381 43.3171H34.7105C34.8954 43.3171 35.0455 43.167 35.0455 42.9821V35.8712C35.0455 35.4611 35.0848 35.1566 35.1632 34.9643C35.326 34.5623 35.8327 33.6269 37.028 33.6269C38.8155 33.6269 39.0092 35.4406 39.0092 36.2232L39.0642 42.9847C39.0655 43.1689 39.2156 43.3171 39.3992 43.3171H43.4192C43.6041 43.3171 43.7542 43.167 43.7542 42.9821V36.163C43.7542 33.9319 43.2038 32.2508 42.1184 31.1668C41.234 30.2837 40.0427 29.8359 38.576 29.8359ZM23.9905 29.9184C23.8055 29.9184 23.6555 30.0685 23.6555 30.2534V42.9834C23.6555 43.1683 23.8055 43.3184 23.9905 43.3184H28.0105C28.1954 43.3184 28.3455 43.1683 28.3455 42.9834V30.2534C28.3455 30.0685 28.1954 29.9184 28.0105 29.9184H23.9905ZM38.5656 30.5072H38.576C39.8591 30.5072 40.8923 30.8894 41.646 31.6418C42.6008 32.5952 43.0855 34.1161 43.0855 36.163V42.6484H39.7328L39.6792 36.2219C39.6792 34.2085 38.6641 32.9569 37.0293 32.9569C35.9171 32.9569 34.9872 33.613 34.543 34.7118C34.4304 34.9878 34.3755 35.3667 34.3755 35.8712V42.6471H30.9757C30.9844 40.8407 31.0178 32.6165 30.9823 30.5884H34.3755V32.1312C34.3379 32.2257 34.3533 32.3352 34.4043 32.4269C34.4639 32.5321 34.5892 32.5984 34.7105 32.5984C34.8498 32.5984 34.969 32.487 35.0193 32.3537C35.5084 31.5497 36.4115 30.5072 38.5656 30.5072ZM24.3255 30.5884H27.6755V42.6484H24.3255V30.5884Z" fill="black"/>
</svg>